<svg xmlns="http://www.w3.org/2000/svg" version="1.1" xmlns:xlink="http://www.w3.org/1999/xlink" xmlns:svgjs="http://svgjs.dev/svgjs" width="1000" height="1000" viewBox="0 0 1000 1000"><rect width="1000" height="1000" fill="#000000"></rect><g transform="matrix(0.7,0,0,0.7,150.00040338463458,106.25)"><svg viewBox="0 0 320 360" data-background-color="#ffffff" preserveAspectRatio="xMidYMid meet" height="1125" width="1000" xmlns="http://www.w3.org/2000/svg" xmlns:xlink="http://www.w3.org/1999/xlink"><g id="tight-bounds" transform="matrix(1,0,0,1,0.00018440440442191175,0)"><svg viewBox="0 0 320 360" height="360" width="320"><g><svg></svg></g><g><svg viewBox="0 0 320 360" height="360" width="320"><g><path xmlns="http://www.w3.org/2000/svg" d="M294.684 112.125c-8.775-10.699-25.381-16.201-43-22.006-7.56-2.498-15.357-5.097-22.985-8.235-7.695-3.173-15.256-7.257-22.613-11.172-14.952-8.033-30.41-16.336-46.105-16.336-15.661 0-31.119 8.303-46.071 16.336-7.358 3.949-14.952 8.033-22.648 11.205-7.594 3.139-15.425 5.704-22.985 8.236-17.618 5.839-34.224 11.341-42.999 22.006-11.712 14.277-11.442 35.439-11.172 57.817 0.034 3.375 0.068 6.717 0.067 10.024 0 3.308-0.034 6.649-0.101 10.024-0.27 22.411-0.54 43.54 11.172 57.851 8.775 10.666 25.381 16.167 42.966 22.006 7.56 2.498 15.357 5.097 23.019 8.235 7.695 3.173 15.256 7.223 22.579 11.172 14.986 8.067 30.444 16.37 46.105 16.37 15.695 0 31.153-8.303 46.105-16.336 7.358-3.949 14.918-8.033 22.614-11.172 7.594-3.139 15.357-5.704 22.884-8.202 17.72-5.873 34.326-11.374 43.101-22.039 11.712-14.277 11.442-35.439 11.171-57.817-0.034-3.409-0.101-6.75-0.101-10.058 0-3.308 0.034-6.649 0.101-9.991 0.371-22.479 0.641-43.641-11.104-57.918zM305.552 103.215c-15.728-19.171-45.801-23.727-71.486-34.326-22.985-9.45-46.375-28.588-74.051-28.587-27.676 0-51.066 19.137-74.052 28.587-25.719 10.598-55.758 15.155-71.486 34.326-17.078 20.791-14.311 50.121-14.311 76.785 0 26.63-2.768 55.994 14.277 76.785 15.728 19.171 45.801 23.727 71.487 34.326 22.985 9.484 46.375 28.588 74.051 28.587 27.676 0 51.066-19.103 74.051-28.587 25.719-10.598 55.758-15.155 71.486-34.326 17.045-20.791 14.277-50.121 14.277-76.785 0.068-26.664 2.835-55.994-14.243-76.785zM309.872 189.923c0.304 23.221 0.574 45.059-12.083 60.483-9.518 11.577-26.664 17.281-44.822 23.289-7.56 2.498-15.29 5.063-22.715 8.134-7.493 3.071-14.952 7.088-22.175 10.969-15.458 8.303-31.355 16.842-48.062 16.842-16.707 0-32.604-8.539-47.995-16.808-7.257-3.915-14.75-7.932-22.243-11.003-7.527-3.105-15.256-5.67-22.748-8.134-18.192-6.008-35.338-11.712-44.823-23.289-12.623-15.391-12.353-37.262-12.083-60.415 0.034-3.375 0.101-6.683 0.101-9.991 0-3.308-0.034-6.615-0.067-9.991-0.304-23.154-0.574-45.025 12.083-60.415 9.518-11.577 26.664-17.247 44.822-23.289 7.527-2.498 15.256-5.063 22.749-8.134 7.493-3.105 14.986-7.122 22.242-11.003 15.391-8.269 31.322-16.842 47.995-16.842 16.673 0 32.604 8.539 47.995 16.808 7.257 3.915 14.75 7.932 22.243 11.003 7.493 3.105 15.256 5.637 22.715 8.134 18.158 6.008 35.338 11.712 44.822 23.289 12.657 15.425 12.387 37.262 12.083 60.416-0.034 3.409-0.101 6.717-0.101 9.99 0 3.308 0.034 6.615 0.067 9.957z" fill="#ffffff" fill-rule="nonzero" stroke="none" stroke-width="1" stroke-linecap="butt" stroke-linejoin="miter" stroke-miterlimit="10" stroke-dasharray="" stroke-dashoffset="0" font-family="none" font-weight="none" font-size="none" text-anchor="none" style="mix-blend-mode: normal" data-fill-palette-color="tertiary"></path></g><g transform="matrix(1,0,0,1,64,125.68632749591026)"><svg viewBox="0 0 192 108.62734500817947" height="108.62734500817947" width="192"><g><svg viewBox="0 0 192 108.62734500817947" height="108.62734500817947" width="192"><g transform="matrix(1,0,0,1,0,65.9479338682511)"><svg viewBox="0 0 192 42.67941113992838" height="42.67941113992838" width="192"><g id="textblocktransform"><svg viewBox="0 0 192 42.67941113992838" height="42.67941113992838" width="192" id="textblock"><g><svg viewBox="0 0 192 29.503158613624723" height="29.503158613624723" width="192"><g transform="matrix(1,0,0,1,0,0)"><svg width="192" viewBox="0.9500000476837158 -42.189998626708984 285.9700012207031 43.94999694824219" height="29.503158613624723" data-palette-color="#ffffff"><path d="M18.6-24.61L18.6-24.61 15.65-24.61Q13.77-24.61 12.94-25.57 12.11-26.54 12.11-28.13L12.11-28.13Q12.11-31.64 17.36-31.64L17.36-31.64Q22.29-31.64 24.78-30.18L24.78-30.18 23.36-29.1Q21.66-29.88 17.36-29.88L17.36-29.88Q15.26-29.88 14.54-29.42 13.82-28.96 13.82-28.13 13.82-27.29 14.21-26.83 14.6-26.37 15.65-26.37L15.65-26.37 18.68-26.37Q21.97-26.37 24.62-25.24 27.27-24.12 28.98-22.18 30.69-20.24 31.59-17.71 32.5-15.19 32.5-12.3L32.5-12.3Q32.5-9.96 31.84-7.86 31.18-5.76 29.85-4 28.52-2.25 26.65-0.96 24.78 0.32 22.2 1.04 19.63 1.76 16.63 1.76L16.63 1.76Q11.91 1.76 7.8 0.33 3.69-1.1 0.95-3.66L0.95-3.66 2.37-4.71Q4.86-2.47 8.61-1.23 12.35 0 16.63 0L16.63 0Q19.97 0 22.67-0.96 25.37-1.93 27.11-3.61 28.86-5.3 29.8-7.52 30.74-9.74 30.74-12.3L30.74-12.3Q30.74-15.7 29.37-18.44 28-21.19 25.21-22.9 22.41-24.61 18.6-24.61ZM15.65-22.85L15.65-22.85 18.43-22.85Q23.39-22.85 26.18-19.82 28.98-16.8 28.98-12.3L28.98-12.3Q28.98-7.74 25.73-4.75 22.49-1.76 16.63-1.76L16.63-1.76Q12.72-1.76 9.33-2.83 5.93-3.91 3.69-5.86L3.69-5.86 5.05-6.96Q7.06-5.32 10.1-4.42 13.13-3.52 16.63-3.52L16.63-3.52Q21.78-3.52 24.5-5.98 27.22-8.45 27.22-12.3L27.22-12.3Q27.22-16.11 24.94-18.6 22.66-21.09 18.41-21.09L18.41-21.09 15.65-21.09Q12.08-21.09 10.3-23.05 8.52-25 8.52-28.13 8.52-31.25 10.73-33.2 12.94-35.16 17.36-35.16L17.36-35.16Q20.46-35.16 23.12-34.44 25.78-33.72 27.51-32.37L27.51-32.37 26.12-31.3Q23.07-33.4 17.36-33.4L17.36-33.4Q13.67-33.4 11.98-31.95 10.28-30.49 10.28-28.13L10.28-28.13Q10.28-25.73 11.54-24.29 12.79-22.85 15.65-22.85ZM15.65-19.34L15.65-19.34 18.33-19.34Q21.9-19.34 23.68-17.36 25.46-15.38 25.46-12.3L25.46-12.3Q25.46-9.18 23.25-7.23 21.04-5.27 16.63-5.27L16.63-5.27Q13.53-5.27 10.85-5.99 8.18-6.71 6.45-8.06L6.45-8.06 7.84-9.13Q10.89-7.03 16.63-7.03L16.63-7.03Q20.31-7.03 22.01-8.48 23.71-9.94 23.71-12.3 23.71-14.67 22.44-16.13 21.17-17.58 18.31-17.58L18.31-17.58 15.65-17.58Q10.64-17.58 7.82-20.57 5-23.56 5-28.13 5-32.69 8.25-35.68 11.5-38.67 17.36-38.67L17.36-38.67Q21.26-38.67 24.65-37.6 28.03-36.52 30.27-34.57L30.27-34.57 28.91-33.47Q26.9-35.11 23.88-36.01 20.85-36.91 17.36-36.91L17.36-36.91Q12.21-36.91 9.48-34.45 6.76-31.98 6.76-28.13L6.76-28.13Q6.76-24.29 9.06-21.81 11.35-19.34 15.65-19.34ZM15.65-15.82L15.65-15.82 18.33-15.82Q20.21-15.82 21.04-14.84 21.88-13.87 21.88-12.3L21.88-12.3Q21.88-8.79 16.63-8.79L16.63-8.79Q11.67-8.79 9.18-10.25L9.18-10.25 10.6-11.33Q12.3-10.55 16.63-10.55L16.63-10.55Q18.73-10.55 19.45-11.01 20.17-11.47 20.17-12.3L20.17-12.3Q20.17-13.11 19.76-13.59 19.36-14.06 18.29-14.06L18.29-14.06 15.65-14.06Q12.28-14.06 9.56-15.16 6.84-16.26 5.09-18.19 3.34-20.12 2.42-22.66 1.49-25.2 1.49-28.13L1.49-28.13Q1.49-30.47 2.15-32.57 2.81-34.67 4.14-36.43 5.47-38.18 7.34-39.47 9.2-40.75 11.78-41.47 14.36-42.19 17.36-42.19L17.36-42.19Q22.07-42.19 26.17-40.76 30.27-39.33 33.01-36.77L33.01-36.77 31.59-35.72Q29.1-37.96 25.37-39.2 21.63-40.43 17.36-40.43L17.36-40.43Q14.01-40.43 11.32-39.47 8.62-38.5 6.87-36.82 5.13-35.13 4.19-32.91 3.25-30.69 3.25-28.13L3.25-28.13Q3.25-24.68 4.64-21.92 6.03-19.17 8.89-17.49 11.74-15.82 15.65-15.82ZM75.05 0L75.05-40.43 76.8-40.43 76.8 0 75.05 0ZM36.37 0L36.37-40.43 38.13-40.43 38.13 0 36.37 0ZM71.53 0L71.53-40.43 73.29-40.43 73.29 0 71.53 0ZM68.02 0L68.02-40.43 69.77-40.43 69.77 0 68.02 0ZM64.5-24.63L64.5-40.43 66.26-40.43 66.26 0 64.5 0 64.5-15.84 48.68-15.84 48.68 0 46.92 0 46.92-40.43 48.68-40.43 48.68-24.63 64.5-24.63ZM43.41 0L43.41-40.43 45.16-40.43 45.16 0 43.41 0ZM39.89 0L39.89-40.43 41.65-40.43 41.65 0 39.89 0ZM48.68-17.6L64.5-17.6 64.5-19.36 48.68-19.36 48.68-17.6ZM48.68-21.12L64.5-21.12 64.5-22.88 48.68-22.88 48.68-21.12ZM95.67-27.05Q92.84-24.22 92.84-20.21 92.84-16.21 95.67-13.38 98.51-10.55 102.51-10.55 106.51-10.55 109.35-13.38 112.18-16.21 112.18-20.21 112.18-24.22 109.35-27.05 106.51-29.88 102.51-29.88 98.51-29.88 95.67-27.05ZM91.99-15.78Q91.08-17.9 91.08-20.21 91.08-22.53 91.99-24.65 92.89-26.76 94.43-28.3 95.97-29.83 98.08-30.74 100.19-31.64 102.51-31.64 104.83-31.64 106.94-30.74 109.05-29.83 110.59-28.3 112.13-26.76 113.03-24.65 113.94-22.53 113.94-20.21 113.94-17.9 113.03-15.78 112.13-13.67 110.59-12.13 109.05-10.6 106.94-9.69 104.83-8.79 102.51-8.79 100.19-8.79 98.08-9.69 95.97-10.6 94.43-12.13 92.89-13.67 91.99-15.78ZM91.1-26.83Q89.33-23.8 89.33-20.21 89.33-16.63 91.1-13.6 92.87-10.57 95.89-8.8 98.92-7.03 102.51-7.03 106.1-7.03 109.13-8.8 112.15-10.57 113.92-13.6 115.69-16.63 115.69-20.21 115.69-23.8 113.92-26.83 112.15-29.86 109.13-31.63 106.1-33.4 102.51-33.4 98.92-33.4 95.89-31.63 92.87-29.86 91.1-26.83ZM89.57-12.72Q87.57-16.16 87.57-20.21 87.57-24.27 89.57-27.71 91.57-31.15 95.01-33.15 98.46-35.16 102.51-35.16 106.56-35.16 110-33.15 113.45-31.15 115.45-27.71 117.45-24.27 117.45-20.21 117.45-16.16 115.45-12.72 113.45-9.28 110-7.28 106.56-5.27 102.51-5.27 98.46-5.27 95.01-7.28 91.57-9.28 89.57-12.72ZM87.13-26.71Q85.81-23.61 85.81-20.21 85.81-16.82 87.13-13.72 88.45-10.62 90.68-8.39 92.91-6.15 96.02-4.83 99.12-3.52 102.51-3.52 105.9-3.52 109-4.83 112.1-6.15 114.34-8.39 116.57-10.62 117.89-13.72 119.21-16.82 119.21-20.21 119.21-23.61 117.89-26.71 116.57-29.81 114.34-32.04 112.1-34.28 109-35.6 105.9-36.91 102.51-36.91 99.12-36.91 96.02-35.6 92.91-34.28 90.68-32.04 88.45-29.81 87.13-26.71ZM86.53-10.96Q84.05-15.21 84.05-20.21 84.05-25.22 86.53-29.47 89.01-33.72 93.26-36.19 97.5-38.67 102.51-38.67 107.51-38.67 111.76-36.19 116.01-33.72 118.49-29.47 120.97-25.22 120.97-20.21 120.97-15.21 118.49-10.96 116.01-6.71 111.76-4.24 107.51-1.76 102.51-1.76 97.5-1.76 93.26-4.24 89.01-6.71 86.53-10.96ZM83.89-28.06Q82.29-24.32 82.29-20.21 82.29-16.11 83.89-12.37 85.49-8.62 88.2-5.91 90.91-3.2 94.66-1.6 98.41 0 102.51 0 106.61 0 110.36-1.6 114.11-3.2 116.82-5.91 119.53-8.62 121.13-12.37 122.72-16.11 122.72-20.21 122.72-24.32 121.13-28.06 119.53-31.81 116.82-34.52 114.11-37.23 110.36-38.83 106.61-40.43 102.51-40.43 98.41-40.43 94.66-38.83 90.91-37.23 88.2-34.52 85.49-31.81 83.89-28.06ZM82.28-11.68Q80.54-15.75 80.54-20.21 80.54-24.68 82.28-28.75 84.03-32.81 86.97-35.75 89.91-38.7 93.98-40.44 98.04-42.19 102.51-42.19 106.98-42.19 111.04-40.44 115.11-38.7 118.05-35.75 120.99-32.81 122.74-28.75 124.48-24.68 124.48-20.21 124.48-15.75 122.74-11.68 120.99-7.62 118.05-4.68 115.11-1.73 111.04 0.01 106.98 1.76 102.51 1.76 98.04 1.76 93.98 0.01 89.91-1.73 86.97-4.68 84.03-7.62 82.28-11.68ZM141.79-17.38L141.79-19.14 151.99-19.14Q154.51-19.14 156.25-20.84 158-22.53 158-25.63L158-25.63Q158-27.95 156.17-29.8 154.34-31.64 151.99-31.64L151.99-31.64 136.91-31.64 136.91 0 135.15 0 135.15-33.4 151.99-33.4Q155.07-33.4 157.41-31.03 159.76-28.66 159.76-25.63L159.76-25.63Q159.76-21.9 157.49-19.64 155.22-17.38 151.99-17.38L151.99-17.38 141.79-17.38ZM141.79-13.87L141.79-15.63 151.99-15.63Q154.53-15.63 156.69-16.86 158.85-18.09 160.19-20.41 161.52-22.73 161.52-25.63L161.52-25.63Q161.52-29.39 158.65-32.28 155.78-35.16 151.99-35.16L151.99-35.16 133.39-35.16 133.39 0 131.63 0 131.63-36.91 151.99-36.91Q154.95-36.91 157.56-35.35 160.17-33.79 161.72-31.18 163.27-28.56 163.27-25.63L163.27-25.63Q163.27-22.31 161.71-19.59 160.15-16.87 157.57-15.37 155-13.87 151.99-13.87L151.99-13.87 141.79-13.87ZM141.79-10.35L141.79-12.11 151.99-12.11Q154.61-12.11 157-13.15 159.39-14.18 161.16-15.95 162.93-17.72 163.98-20.25 165.03-22.78 165.03-25.63L165.03-25.63Q165.03-29.05 163.25-32.07 161.47-35.08 158.45-36.88 155.44-38.67 151.99-38.67L151.99-38.67 129.88-38.67 129.88 0 128.12 0 128.12-40.43 151.99-40.43Q155.9-40.43 159.32-38.39 162.74-36.35 164.76-32.93 166.79-29.52 166.79-25.63L166.79-25.63Q166.79-22.17 165.59-19.25 164.4-16.33 162.37-14.4 160.34-12.48 157.66-11.41 154.97-10.35 151.99-10.35L151.99-10.35 141.79-10.35ZM140.42-28.13L140.42 0 138.66 0 138.66-29.88 151.99-29.88Q153.73-29.88 154.99-28.61 156.24-27.34 156.24-25.63L156.24-25.63Q156.24-20.9 151.99-20.9L151.99-20.9 141.79-20.9 141.79-22.66 151.99-22.66Q153.17-22.66 153.83-23.32 154.48-23.97 154.48-25.63L154.48-25.63Q154.48-26.71 153.76-27.42 153.04-28.13 151.99-28.13L151.99-28.13 140.42-28.13ZM184.32-17.38L184.32-19.14 194.52-19.14Q197.04-19.14 198.78-20.84 200.53-22.53 200.53-25.63L200.53-25.63Q200.53-27.95 198.7-29.8 196.87-31.64 194.52-31.64L194.52-31.64 179.43-31.64 179.43 0 177.68 0 177.68-33.4 194.52-33.4Q197.6-33.4 199.94-31.03 202.28-28.66 202.28-25.63L202.28-25.63Q202.28-21.9 200.01-19.64 197.74-17.38 194.52-17.38L194.52-17.38 184.32-17.38ZM184.32-13.87L184.32-15.63 194.52-15.63Q197.06-15.63 199.22-16.86 201.38-18.09 202.71-20.41 204.04-22.73 204.04-25.63L204.04-25.63Q204.04-29.39 201.17-32.28 198.31-35.16 194.52-35.16L194.52-35.16 175.92-35.16 175.92 0 174.16 0 174.16-36.91 194.52-36.91Q197.48-36.91 200.09-35.35 202.7-33.79 204.25-31.18 205.8-28.56 205.8-25.63L205.8-25.63Q205.8-22.31 204.24-19.59 202.68-16.87 200.1-15.37 197.52-13.87 194.52-13.87L194.52-13.87 184.32-13.87ZM184.32-10.35L184.32-12.11 194.52-12.11Q197.13-12.11 199.53-13.15 201.92-14.18 203.69-15.95 205.46-17.72 206.51-20.25 207.56-22.78 207.56-25.63L207.56-25.63Q207.56-29.05 205.78-32.07 203.99-35.08 200.98-36.88 197.96-38.67 194.52-38.67L194.52-38.67 172.4-38.67 172.4 0 170.64 0 170.64-40.43 194.52-40.43Q198.43-40.43 201.85-38.39 205.26-36.35 207.29-32.93 209.32-29.52 209.32-25.63L209.32-25.63Q209.32-22.17 208.12-19.25 206.92-16.33 204.9-14.4 202.87-12.48 200.19-11.41 197.5-10.35 194.52-10.35L194.52-10.35 184.32-10.35ZM182.95-28.13L182.95 0 181.19 0 181.19-29.88 194.52-29.88Q196.25-29.88 197.51-28.61 198.77-27.34 198.77-25.63L198.77-25.63Q198.77-20.9 194.52-20.9L194.52-20.9 184.32-20.9 184.32-22.66 194.52-22.66Q195.69-22.66 196.35-23.32 197.01-23.97 197.01-25.63L197.01-25.63Q197.01-26.71 196.29-27.42 195.57-28.13 194.52-28.13L194.52-28.13 182.95-28.13ZM221.96-40.43L221.96 0 220.2 0 220.2-40.43 221.96-40.43ZM218.44-40.43L218.44 0 216.69 0 216.69-40.43 218.44-40.43ZM214.93-40.43L214.93 0 213.17 0 213.17-40.43 214.93-40.43ZM225.48-15.82L225.48-8.79 244.18-8.79 244.18-7.03 225.48-7.03 225.48-5.27 244.18-5.27 244.18-3.52 225.48-3.52 225.48-1.76 244.18-1.76 244.18 0 223.72 0 223.72-40.43 244.18-40.43 244.18-38.67 225.48-38.67 225.48-36.91 244.18-36.91 244.18-35.16 225.48-35.16 225.48-33.4 244.18-33.4 244.18-31.64 225.48-31.64 225.48-24.61 235.07-24.61 235.07-22.85 225.48-22.85 225.48-21.09 235.07-21.09 235.07-19.34 225.48-19.34 225.48-17.58 235.07-17.58 235.07-15.82 225.48-15.82ZM261.78-18.36L261.78-20.12 272.37-20.12Q274.79-20.12 276.46-21.68 278.13-23.24 278.13-26.12L278.13-26.12Q278.13-28.25 276.38-29.94 274.62-31.64 272.37-31.64L272.37-31.64 257.28-31.64 257.28 0 255.53 0 255.53-33.4 272.37-33.4Q275.35-33.4 277.62-31.19 279.89-28.98 279.89-26.12L279.89-26.12Q279.89-22.61 277.69-20.48 275.5-18.36 272.37-18.36L272.37-18.36 261.78-18.36ZM261.78-14.84L261.78-16.6 272.37-16.6Q276.18-16.6 278.92-19.27 281.65-21.95 281.65-26.12L281.65-26.12Q281.65-29.71 278.85-32.43 276.06-35.16 272.37-35.16L272.37-35.16 253.77-35.16 253.77 0 252.01 0 252.01-36.91 272.37-36.91Q275.28-36.91 277.83-35.42 280.38-33.94 281.89-31.43 283.41-28.93 283.41-26.12L283.41-26.12Q283.41-21.31 280.15-18.08 276.89-14.84 272.37-14.84L272.37-14.84 261.78-14.84ZM261.78-11.33L261.78-13.09 272.37-13.09Q275.79-13.09 278.72-14.77 281.65-16.46 283.41-19.47 285.17-22.49 285.17-26.12L285.17-26.12Q285.17-29.42 283.42-32.31 281.67-35.21 278.72-36.94 275.77-38.67 272.37-38.67L272.37-38.67 250.25-38.67 250.25 0 248.5 0 248.5-40.43 272.37-40.43Q276.21-40.43 279.57-38.46 282.94-36.5 284.93-33.19 286.92-29.88 286.92-26.12L286.92-26.12Q286.92-21.78 285.06-18.48 283.19-15.19 279.99-13.33L279.99-13.33 284.53 0 282.68 0 278.33-12.5Q277.35-12.11 276.84-11.96L276.84-11.96 280.92 0 279.06 0 275.08-11.55Q274.86-11.5 273.52-11.38L273.52-11.38 277.3 0 275.45 0 271.71-11.33 270.13-11.33 273.69 0 271.84 0 268.25-11.33 261.78-11.33ZM260.8-28.13L260.8 0 259.04 0 259.04-29.88 272.37-29.88Q274.01-29.88 275.19-28.77 276.38-27.66 276.38-26.12L276.38-26.12Q276.38-21.88 272.37-21.88L272.37-21.88 261.78-21.88 261.78-23.63 272.37-23.63Q273.42-23.63 274.02-24.18 274.62-24.73 274.62-26.12L274.62-26.12Q274.62-26.98 273.97-27.55 273.32-28.13 272.37-28.13L272.37-28.13 260.8-28.13Z" opacity="1" transform="matrix(1,0,0,1,0,0)" fill="#000000" class="wordmark-text-0" data-fill-palette-color="quaternary" id="text-0"></path></svg></g></svg></g><g transform="matrix(1,0,0,1,0,36.46814628649479)"><svg viewBox="0 0 112.72319999999999 6.2112648534335895" height="6.2112648534335895" width="112.72319999999999"><g transform="matrix(1,0,0,1,0,0)"><svg width="112.72319999999999" viewBox="2.700000047683716 -36.900001525878906 851.0800170898438 46.900001525878906" height="6.2112648534335895" data-palette-color="#ffffff"><path d="M21.3-35L27.9-35 27.9-12.1Q27.9-6.1 24.73-2.7 21.55 0.7 15.3 0.7L15.3 0.7Q9.05 0.7 5.88-2.7 2.7-6.1 2.7-12.1L2.7-12.1 2.7-35 9.3-35 9.3-12.1Q9.3-9 10.75-7.25 12.2-5.5 15.3-5.5L15.3-5.5Q18.4-5.5 19.85-7.25 21.3-9 21.3-12.1L21.3-12.1 21.3-35ZM40.8-12.9L40.8 0 34.5 0 34.5-24.8 40.8-24.8 40.8-21.1 41.7-21.1Q42.55-23.2 44.45-24.35 46.35-25.5 48.9-25.5L48.9-25.5Q50.7-25.5 52.27-24.93 53.85-24.35 55.05-23.15 56.25-21.95 56.92-20.1 57.6-18.25 57.6-15.7L57.6-15.7 57.6 0 51.3 0 51.3-14.1Q51.3-16.75 50.02-18.28 48.75-19.8 46.35-19.8L46.35-19.8Q43.55-19.8 42.17-17.93 40.8-16.05 40.8-12.9L40.8-12.9ZM64.95 0L64.95-6 73.65-6 73.65-29 65.25-29 65.25-35 79.95-35 79.95-6 88.05-6 88.05 0 64.95 0ZM119.44-10.35L101.24-10.35Q101.29-9.25 101.77-8.33 102.24-7.4 103.07-6.73 103.89-6.05 104.97-5.68 106.04-5.3 107.24-5.3L107.24-5.3Q109.59-5.3 110.84-6.13 112.09-6.95 112.64-8.1L112.64-8.1 118.04-5.1Q117.59-4.15 116.79-3.13 115.99-2.1 114.72-1.25 113.44-0.4 111.62 0.15 109.79 0.7 107.34 0.7L107.34 0.7Q104.54 0.7 102.24-0.2 99.94-1.1 98.27-2.8 96.59-4.5 95.67-6.95 94.74-9.4 94.74-12.5L94.74-12.5 94.74-12.8Q94.74-15.65 95.72-18 96.69-20.35 98.39-22 100.09-23.65 102.37-24.58 104.64-25.5 107.24-25.5L107.24-25.5Q110.44-25.5 112.74-24.38 115.04-23.25 116.54-21.53 118.04-19.8 118.74-17.73 119.44-15.65 119.44-13.7L119.44-13.7 119.44-10.35ZM107.19-19.8L107.19-19.8Q104.79-19.8 103.29-18.57 101.79-17.35 101.34-15.75L101.34-15.75 113.04-15.75Q112.74-17.5 111.17-18.65 109.59-19.8 107.19-19.8ZM143.24-3.6L142.34-3.6Q141.34-1.25 139.54-0.28 137.74 0.7 135.34 0.7L135.34 0.7Q133.09 0.7 131.12-0.15 129.14-1 127.64-2.65 126.14-4.3 125.27-6.65 124.39-9 124.39-12L124.39-12 124.39-12.8Q124.39-15.75 125.24-18.1 126.09-20.45 127.54-22.1 128.99-23.75 130.92-24.63 132.84-25.5 135.04-25.5L135.04-25.5Q137.69-25.5 139.32-24.6 140.94-23.7 141.89-21.8L141.89-21.8 142.79-21.8 142.79-24.8 149.09-24.8 149.09-7.5Q149.09-6 150.44-6L150.44-6 151.39-6 151.39 0 147.09 0Q145.39 0 144.32-1 143.24-2 143.24-3.6L143.24-3.6ZM136.74-5.3L136.74-5.3Q139.49-5.3 141.14-7.13 142.79-8.95 142.79-12.1L142.79-12.1 142.79-12.7Q142.79-15.85 141.14-17.68 139.49-19.5 136.74-19.5L136.74-19.5Q133.99-19.5 132.34-17.68 130.69-15.85 130.69-12.7L130.69-12.7 130.69-12.1Q130.69-8.95 132.34-7.13 133.99-5.3 136.74-5.3ZM164.79-17.8L164.79-17.8Q164.79-16.6 166.04-16.07 167.29-15.55 170.59-15.2L170.59-15.2Q174.39-14.8 176.79-12.93 179.19-11.05 179.19-7.7L179.19-7.7 179.19-7.4Q179.19-3.7 176.49-1.5 173.79 0.7 168.89 0.7L168.89 0.7Q165.99 0.7 163.94-0.05 161.89-0.8 160.54-1.93 159.19-3.05 158.46-4.42 157.74-5.8 157.49-7.1L157.49-7.1 163.29-9Q163.69-7.4 164.96-6.2 166.24-5 168.89-5L168.89-5Q171.24-5 172.11-5.73 172.99-6.45 172.99-7.3L172.99-7.3Q172.99-7.8 172.76-8.22 172.54-8.65 171.94-9.03 171.34-9.4 170.31-9.65 169.29-9.9 167.74-10.05L167.74-10.05Q163.54-10.4 161.06-12.23 158.59-14.05 158.59-17.6L158.59-17.6 158.59-17.9Q158.59-19.75 159.39-21.15 160.19-22.55 161.49-23.53 162.79-24.5 164.49-25 166.19-25.5 167.99-25.5L167.99-25.5Q170.34-25.5 172.06-24.93 173.79-24.35 174.99-23.43 176.19-22.5 176.94-21.38 177.69-20.25 178.09-19.2L178.09-19.2 172.39-16.9Q171.94-18.25 170.84-19.03 169.74-19.8 167.99-19.8L167.99-19.8Q166.39-19.8 165.59-19.23 164.79-18.65 164.79-17.8ZM193.89-12.9L193.89 0 187.59 0 187.59-35 193.89-35 193.89-20.8 194.78-20.8Q195.74-23.05 197.59-24.28 199.44-25.5 202.14-25.5L202.14-25.5Q203.99-25.5 205.54-24.9 207.09-24.3 208.24-23.1 209.39-21.9 210.04-20.03 210.69-18.15 210.69-15.6L210.69-15.6 210.69 0 204.39 0 204.39-14.1Q204.39-16.75 203.11-18.28 201.84-19.8 199.44-19.8L199.44-19.8Q196.64-19.8 195.26-17.93 193.89-16.05 193.89-12.9L193.89-12.9ZM256.78 0L256.78-12.3 255.28-12.3 245.23-35 252.43-35 259.63-18.3 260.53-18.3 267.73-35 274.93-35 264.88-12.3 263.38-12.3 263.38 0 256.78 0ZM303.58-12.7L303.58-12.1Q303.58-9 302.53-6.63 301.48-4.25 299.68-2.63 297.88-1 295.55-0.15 293.23 0.7 290.68 0.7L290.68 0.7Q288.13 0.7 285.8-0.15 283.48-1 281.68-2.63 279.88-4.25 278.83-6.63 277.78-9 277.78-12.1L277.78-12.1 277.78-12.7Q277.78-15.75 278.83-18.13 279.88-20.5 281.68-22.15 283.48-23.8 285.8-24.65 288.13-25.5 290.68-25.5L290.68-25.5Q293.23-25.5 295.55-24.65 297.88-23.8 299.68-22.15 301.48-20.5 302.53-18.13 303.58-15.75 303.58-12.7L303.58-12.7ZM290.68-5.3L290.68-5.3Q292.03-5.3 293.23-5.75 294.43-6.2 295.33-7.05 296.23-7.9 296.75-9.13 297.28-10.35 297.28-11.9L297.28-11.9 297.28-12.9Q297.28-14.45 296.75-15.68 296.23-16.9 295.33-17.75 294.43-18.6 293.23-19.05 292.03-19.5 290.68-19.5L290.68-19.5Q289.33-19.5 288.13-19.05 286.93-18.6 286.03-17.75 285.13-16.9 284.6-15.68 284.08-14.45 284.08-12.9L284.08-12.9 284.08-11.9Q284.08-10.35 284.6-9.13 285.13-7.9 286.03-7.05 286.93-6.2 288.13-5.75 289.33-5.3 290.68-5.3ZM326.68-11.8L326.68-24.8 332.98-24.8 332.98 0 326.68 0 326.68-3.6 325.78-3.6Q324.13 0.7 318.68 0.7L318.68 0.7Q316.83 0.7 315.23 0.1 313.63-0.5 312.43-1.75 311.23-3 310.55-4.88 309.88-6.75 309.88-9.3L309.88-9.3 309.88-24.8 316.18-24.8 316.18-10.6Q316.18-7.95 317.43-6.48 318.68-5 321.18-5L321.18-5Q324.03-5 325.35-6.83 326.68-8.65 326.68-11.8L326.68-11.8ZM339.27-18.8L339.27-24.8 349.77-24.8 349.77-21.2 350.67-21.2Q351.37-23.25 353.05-24.38 354.72-25.5 357.07-25.5L357.07-25.5Q360.77-25.5 363.02-23.18 365.27-20.85 365.27-16.1L365.27-16.1 365.27-15 358.77-14.4 358.77-15.1Q358.77-17.15 357.72-18.38 356.67-19.6 354.57-19.6L354.57-19.6Q352.47-19.6 351.27-18.15 350.07-16.7 350.07-14L350.07-14 350.07-6 355.77-6 355.77 0 338.67 0 338.67-6 343.77-6 343.77-18.8 339.27-18.8ZM419.07-23.1L419.07-24.3Q419.07-26.4 417.44-27.95 415.82-29.5 412.87-29.5L412.87-29.5Q410.37-29.5 408.92-28.48 407.47-27.45 407.47-25.7L407.47-25.7Q407.47-24.8 407.82-24.08 408.17-23.35 409.04-22.78 409.92-22.2 411.34-21.75 412.77-21.3 414.97-20.9L414.97-20.9Q420.47-19.9 423.37-17.55 426.27-15.2 426.27-10.6L426.27-10.6 426.27-10Q426.27-7.55 425.39-5.58 424.52-3.6 422.87-2.2 421.22-0.8 418.87-0.05 416.52 0.7 413.57 0.7L413.57 0.7Q410.12 0.7 407.49-0.28 404.87-1.25 403.12-2.98 401.37-4.7 400.47-7.03 399.57-9.35 399.57-12.1L399.57-12.1 399.57-13.6 406.17-13.6 406.17-12.4Q406.17-9.25 407.99-7.38 409.82-5.5 413.67-5.5L413.67-5.5Q416.67-5.5 418.12-6.8 419.57-8.1 419.57-9.9L419.57-9.9Q419.57-10.75 419.27-11.53 418.97-12.3 418.22-12.93 417.47-13.55 416.17-14.05 414.87-14.55 412.87-14.9L412.87-14.9Q410.22-15.35 408.02-16.07 405.82-16.8 404.19-18 402.57-19.2 401.67-21 400.77-22.8 400.77-25.4L400.77-25.4 400.77-25.7Q400.77-27.85 401.64-29.68 402.52-31.5 404.09-32.85 405.67-34.2 407.89-34.95 410.12-35.7 412.87-35.7L412.87-35.7Q415.97-35.7 418.37-34.83 420.77-33.95 422.39-32.45 424.02-30.95 424.84-29 425.67-27.05 425.67-24.9L425.67-24.9 425.67-23.1 419.07-23.1ZM438.67-12.9L438.67 0 432.37 0 432.37-35 438.67-35 438.67-20.8 439.57-20.8Q440.52-23.05 442.37-24.28 444.22-25.5 446.92-25.5L446.92-25.5Q448.77-25.5 450.32-24.9 451.87-24.3 453.02-23.1 454.17-21.9 454.82-20.03 455.47-18.15 455.47-15.6L455.47-15.6 455.47 0 449.17 0 449.17-14.1Q449.17-16.75 447.89-18.28 446.62-19.8 444.22-19.8L444.22-19.8Q441.42-19.8 440.04-17.93 438.67-16.05 438.67-12.9L438.67-12.9ZM487.16-12.7L487.16-12.1Q487.16-9 486.11-6.63 485.06-4.25 483.26-2.63 481.46-1 479.14-0.15 476.81 0.7 474.26 0.7L474.26 0.7Q471.71 0.7 469.39-0.15 467.06-1 465.26-2.63 463.46-4.25 462.41-6.63 461.36-9 461.36-12.1L461.36-12.1 461.36-12.7Q461.36-15.75 462.41-18.13 463.46-20.5 465.26-22.15 467.06-23.8 469.39-24.65 471.71-25.5 474.26-25.5L474.26-25.5Q476.81-25.5 479.14-24.65 481.46-23.8 483.26-22.15 485.06-20.5 486.11-18.13 487.16-15.75 487.16-12.7L487.16-12.7ZM474.26-5.3L474.26-5.3Q475.61-5.3 476.81-5.75 478.01-6.2 478.91-7.05 479.81-7.9 480.34-9.13 480.86-10.35 480.86-11.9L480.86-11.9 480.86-12.9Q480.86-14.45 480.34-15.68 479.81-16.9 478.91-17.75 478.01-18.6 476.81-19.05 475.61-19.5 474.26-19.5L474.26-19.5Q472.91-19.5 471.71-19.05 470.51-18.6 469.61-17.75 468.71-16.9 468.19-15.68 467.66-14.45 467.66-12.9L467.66-12.9 467.66-11.9Q467.66-10.35 468.19-9.13 468.71-7.9 469.61-7.05 470.51-6.2 471.71-5.75 472.91-5.3 474.26-5.3ZM498.46-3.6L498.46 10 492.16 10 492.16-24.8 498.46-24.8 498.46-21.2 499.36-21.2Q500.36-23.25 502.26-24.38 504.16-25.5 507.11-25.5L507.11-25.5Q509.31-25.5 511.29-24.65 513.26-23.8 514.74-22.18 516.21-20.55 517.09-18.2 517.96-15.85 517.96-12.85L517.96-12.85 517.96-11.95Q517.96-8.9 517.11-6.55 516.26-4.2 514.81-2.58 513.36-0.95 511.39-0.13 509.41 0.7 507.11 0.7L507.11 0.7Q505.41 0.7 504.16 0.35 502.91 0 501.99-0.6 501.06-1.2 500.44-1.98 499.81-2.75 499.36-3.6L499.36-3.6 498.46-3.6ZM505.06-5.3L505.06-5.3Q508.01-5.3 509.84-7.13 511.66-8.95 511.66-12.1L511.66-12.1 511.66-12.7Q511.66-15.85 509.84-17.68 508.01-19.5 505.06-19.5L505.06-19.5Q502.11-19.5 500.29-17.63 498.46-15.75 498.46-12.7L498.46-12.7 498.46-12.1Q498.46-9.05 500.29-7.18 502.11-5.3 505.06-5.3ZM529.06-3.6L529.06 10 522.76 10 522.76-24.8 529.06-24.8 529.06-21.2 529.96-21.2Q530.96-23.25 532.86-24.38 534.76-25.5 537.71-25.5L537.71-25.5Q539.91-25.5 541.88-24.65 543.86-23.8 545.33-22.18 546.81-20.55 547.68-18.2 548.56-15.85 548.56-12.85L548.56-12.85 548.56-11.95Q548.56-8.9 547.71-6.55 546.86-4.2 545.41-2.58 543.96-0.95 541.98-0.13 540.01 0.7 537.71 0.7L537.71 0.7Q536.01 0.7 534.76 0.35 533.51 0 532.58-0.6 531.66-1.2 531.03-1.98 530.41-2.75 529.96-3.6L529.96-3.6 529.06-3.6ZM535.66-5.3L535.66-5.3Q538.61-5.3 540.43-7.13 542.26-8.95 542.26-12.1L542.26-12.1 542.26-12.7Q542.26-15.85 540.43-17.68 538.61-19.5 535.66-19.5L535.66-19.5Q532.71-19.5 530.88-17.63 529.06-15.75 529.06-12.7L529.06-12.7 529.06-12.1Q529.06-9.05 530.88-7.18 532.71-5.3 535.66-5.3ZM555.11 0L555.11-6 563.51-6 563.51-18.8 555.71-18.8 555.71-24.8 569.81-24.8 569.81-6 577.01-6 577.01 0 555.11 0ZM571.36-32.15L571.36-32.15Q571.36-31.15 570.98-30.28 570.61-29.4 569.96-28.78 569.31-28.15 568.43-27.78 567.56-27.4 566.61-27.4L566.61-27.4Q565.61-27.4 564.76-27.78 563.91-28.15 563.26-28.78 562.61-29.4 562.23-30.28 561.86-31.15 561.86-32.15L561.86-32.15Q561.86-33.15 562.23-34.02 562.61-34.9 563.26-35.52 563.91-36.15 564.76-36.52 565.61-36.9 566.61-36.9L566.61-36.9Q567.56-36.9 568.43-36.52 569.31-36.15 569.96-35.52 570.61-34.9 570.98-34.02 571.36-33.15 571.36-32.15ZM591.55-12.9L591.55 0 585.25 0 585.25-24.8 591.55-24.8 591.55-21.1 592.45-21.1Q593.3-23.2 595.2-24.35 597.1-25.5 599.65-25.5L599.65-25.5Q601.45-25.5 603.03-24.93 604.6-24.35 605.8-23.15 607-21.95 607.68-20.1 608.35-18.25 608.35-15.7L608.35-15.7 608.35 0 602.05 0 602.05-14.1Q602.05-16.75 600.78-18.28 599.5-19.8 597.1-19.8L597.1-19.8Q594.3-19.8 592.93-17.93 591.55-16.05 591.55-12.9L591.55-12.9ZM633.55 2.5L633.55-3.6 632.65-3.6Q632.25-2.75 631.68-1.98 631.1-1.2 630.18-0.6 629.25 0 627.98 0.35 626.7 0.7 624.9 0.7L624.9 0.7Q622.6 0.7 620.63-0.13 618.65-0.95 617.18-2.58 615.7-4.2 614.88-6.55 614.05-8.9 614.05-11.95L614.05-11.95 614.05-12.85Q614.05-15.85 614.93-18.2 615.8-20.55 617.33-22.18 618.85-23.8 620.88-24.65 622.9-25.5 625.15-25.5L625.15-25.5Q628.15-25.5 629.9-24.38 631.65-23.25 632.65-21.2L632.65-21.2 633.55-21.2 633.55-24.8 639.85-24.8 639.85 6.1Q639.85 7.8 638.78 8.9 637.7 10 636 10L636 10 619.3 10 619.3 4 632.2 4Q633.55 4 633.55 2.5L633.55 2.5ZM626.95-5.3L626.95-5.3Q629.9-5.3 631.73-7.18 633.55-9.05 633.55-12.1L633.55-12.1 633.55-12.7Q633.55-15.75 631.73-17.63 629.9-19.5 626.95-19.5L626.95-19.5Q624-19.5 622.18-17.68 620.35-15.85 620.35-12.7L620.35-12.7 620.35-12.1Q620.35-8.95 622.18-7.13 624-5.3 626.95-5.3ZM675.44-28.7L675.44-35 688.14-35Q694.64-35 697.79-31.98 700.94-28.95 700.94-22.6L700.94-22.6 700.94-12.4Q700.94-6.05 697.79-3.03 694.64 0 688.14 0L688.14 0 675.44 0 675.44-6.35 678.75-6.35 678.75-28.7 675.44-28.7ZM685.35-6.3L688.14-6.3Q691.6-6.3 692.97-7.93 694.35-9.55 694.35-13L694.35-13 694.35-22.6Q694.35-25.6 692.97-27.15 691.6-28.7 688.14-28.7L688.14-28.7 685.35-28.7 685.35-6.3ZM731.39-10.35L713.19-10.35Q713.24-9.25 713.72-8.33 714.19-7.4 715.02-6.73 715.84-6.05 716.92-5.68 717.99-5.3 719.19-5.3L719.19-5.3Q721.54-5.3 722.79-6.13 724.04-6.95 724.59-8.1L724.59-8.1 729.99-5.1Q729.54-4.15 728.74-3.13 727.94-2.1 726.67-1.25 725.39-0.4 723.57 0.15 721.74 0.7 719.29 0.7L719.29 0.7Q716.49 0.7 714.19-0.2 711.89-1.1 710.22-2.8 708.54-4.5 707.62-6.95 706.69-9.4 706.69-12.5L706.69-12.5 706.69-12.8Q706.69-15.65 707.67-18 708.64-20.35 710.34-22 712.04-23.65 714.32-24.58 716.59-25.5 719.19-25.5L719.19-25.5Q722.39-25.5 724.69-24.38 726.99-23.25 728.49-21.53 729.99-19.8 730.69-17.73 731.39-15.65 731.39-13.7L731.39-13.7 731.39-10.35ZM719.14-19.8L719.14-19.8Q716.74-19.8 715.24-18.57 713.74-17.35 713.29-15.75L713.29-15.75 724.99-15.75Q724.69-17.5 723.12-18.65 721.54-19.8 719.14-19.8ZM746.14-17.8L746.14-17.8Q746.14-16.6 747.39-16.07 748.64-15.55 751.94-15.2L751.94-15.2Q755.74-14.8 758.14-12.93 760.54-11.05 760.54-7.7L760.54-7.7 760.54-7.4Q760.54-3.7 757.84-1.5 755.14 0.7 750.24 0.7L750.24 0.7Q747.34 0.7 745.29-0.05 743.24-0.8 741.89-1.93 740.54-3.05 739.81-4.42 739.09-5.8 738.84-7.1L738.84-7.1 744.64-9Q745.04-7.4 746.31-6.2 747.59-5 750.24-5L750.24-5Q752.59-5 753.46-5.73 754.34-6.45 754.34-7.3L754.34-7.3Q754.34-7.8 754.11-8.22 753.89-8.65 753.29-9.03 752.69-9.4 751.66-9.65 750.64-9.9 749.09-10.05L749.09-10.05Q744.89-10.4 742.41-12.23 739.94-14.05 739.94-17.6L739.94-17.6 739.94-17.9Q739.94-19.75 740.74-21.15 741.54-22.55 742.84-23.53 744.14-24.5 745.84-25 747.54-25.5 749.34-25.5L749.34-25.5Q751.69-25.5 753.41-24.93 755.14-24.35 756.34-23.43 757.54-22.5 758.29-21.38 759.04-20.25 759.44-19.2L759.44-19.2 753.74-16.9Q753.29-18.25 752.19-19.03 751.09-19.8 749.34-19.8L749.34-19.8Q747.74-19.8 746.94-19.23 746.14-18.65 746.14-17.8ZM769.29 0L769.29-6 777.69-6 777.69-18.8 769.89-18.8 769.89-24.8 783.99-24.8 783.99-6 791.19-6 791.19 0 769.29 0ZM785.54-32.15L785.54-32.15Q785.54-31.15 785.16-30.28 784.79-29.4 784.14-28.78 783.49-28.15 782.61-27.78 781.74-27.4 780.79-27.4L780.79-27.4Q779.79-27.4 778.94-27.78 778.09-28.15 777.44-28.78 776.79-29.4 776.41-30.28 776.04-31.15 776.04-32.15L776.04-32.15Q776.04-33.15 776.41-34.02 776.79-34.9 777.44-35.52 778.09-36.15 778.94-36.52 779.79-36.9 780.79-36.9L780.79-36.9Q781.74-36.9 782.61-36.52 783.49-36.15 784.14-35.52 784.79-34.9 785.16-34.02 785.54-33.15 785.54-32.15ZM798.23-18.8L798.23-24.8 808.73-24.8 808.73-21.2 809.63-21.2Q810.33-23.25 812.01-24.38 813.68-25.5 816.03-25.5L816.03-25.5Q819.73-25.5 821.98-23.18 824.23-20.85 824.23-16.1L824.23-16.1 824.23-15 817.73-14.4 817.73-15.1Q817.73-17.15 816.68-18.38 815.63-19.6 813.53-19.6L813.53-19.6Q811.43-19.6 810.23-18.15 809.03-16.7 809.03-14L809.03-14 809.03-6 814.73-6 814.73 0 797.63 0 797.63-6 802.73-6 802.73-18.8 798.23-18.8ZM853.78-10.35L835.58-10.35Q835.63-9.25 836.11-8.33 836.58-7.4 837.41-6.73 838.23-6.05 839.31-5.68 840.38-5.3 841.58-5.3L841.58-5.3Q843.93-5.3 845.18-6.13 846.43-6.95 846.98-8.1L846.98-8.1 852.38-5.1Q851.93-4.15 851.13-3.13 850.33-2.1 849.06-1.25 847.78-0.4 845.96 0.15 844.13 0.7 841.68 0.7L841.68 0.7Q838.88 0.7 836.58-0.2 834.28-1.1 832.61-2.8 830.93-4.5 830.01-6.95 829.08-9.4 829.08-12.5L829.08-12.5 829.08-12.8Q829.08-15.65 830.06-18 831.03-20.35 832.73-22 834.43-23.65 836.71-24.58 838.98-25.5 841.58-25.5L841.58-25.5Q844.78-25.5 847.08-24.38 849.38-23.25 850.88-21.53 852.38-19.8 853.08-17.73 853.78-15.65 853.78-13.7L853.78-13.7 853.78-10.35ZM841.53-19.8L841.53-19.8Q839.13-19.8 837.63-18.57 836.13-17.35 835.68-15.75L835.68-15.75 847.38-15.75Q847.08-17.5 845.51-18.65 843.93-19.8 841.53-19.8Z" opacity="1" transform="matrix(1,0,0,1,0,0)" fill="#000000" class="slogan-text-1" data-fill-palette-color="quaternary" id="text-1"></path></svg></g></svg></g></svg></g></svg></g><g transform="matrix(1,0,0,1,66.50852690230948,0)"><svg viewBox="0 0 58.98294619538103 58.98294619538103" height="58.98294619538103" width="58.98294619538103"><g><svg xmlns="http://www.w3.org/2000/svg" xmlns:xlink="http://www.w3.org/1999/xlink" version="1.1" x="0" y="0" viewBox="25.700000762939453 25.700000762939453 44.500003814697266 44.500003814697266" enable-background="new 0 0 96 96" xml:space="preserve" height="58.98294619538103" width="58.98294619538103" class="icon-icon-0" data-fill-palette-color="quaternary" id="icon-0"><path d="M31.6 25.7c-5.6 0-5.9 5.3-5.9 5.6v38.9c19.9 0 35.2 0 38.6 0 5.6 0 5.9-5.3 5.9-5.6V25.7H31.6zM54.6 38.9c1.7 0 3 1.3 3 3s-1.3 3-3 3-3-1.3-3-3S53 38.9 54.6 38.9zM41.4 38.9c1.7 0 3 1.3 3 3s-1.3 3-3 3-3-1.3-3-3S39.7 38.9 41.4 38.9zM60.7 54.5c-3 2.8-7.6 4.4-12.5 4.4s-9.7-1.7-12.7-4.5c-0.7-0.7-0.7-1.9 0-2.6 0.7-0.7 1.9-0.7 2.6 0 2.2 2.2 6 3.5 10.1 3.5 4 0 7.7-1.3 10-3.4 0.7-0.7 1.9-0.6 2.6 0.1C61.5 52.6 61.5 53.8 60.7 54.5z" fill="#000000" data-fill-palette-color="quaternary"></path></svg></g></svg></g><g></g></svg></g></svg></g></svg></g><defs></defs></svg><rect width="320" height="360" fill="none" stroke="none" visibility="hidden"></rect></g></svg></g></svg>